<svg width="41" height="40" viewBox="0 0 41 40" fill="none" xmlns="http://www.w3.org/2000/svg">
<path fill-rule="evenodd" clip-rule="evenodd" d="M34.493 34.4238C35.3629 33.5518 36.0461 32.5038 36.4917 31.3545C36.9187 30.2505 37.2122 28.9918 37.2976 27.1465C37.383 25.2985 37.4044 24.7065 37.4044 19.9998C37.4044 15.2932 37.383 14.7012 37.2976 12.8532C37.2122 11.0078 36.9187 9.74917 36.4917 8.64517C36.056 7.48875 35.3729 6.44128 34.4903 5.57584C33.6242 4.69396 32.576 4.01144 31.4189 3.57584C30.3141 3.14917 29.0546 2.85584 27.2079 2.7705C25.3587 2.68517 24.7662 2.6665 20.0563 2.6665C15.3464 2.6665 14.754 2.68517 12.9047 2.77317C11.0581 2.85317 9.79852 3.1465 8.69376 3.57584C7.53712 4.01244 6.48915 4.69483 5.62229 5.57584C4.74067 6.44209 4.05781 7.48933 3.6209 8.64517C3.19394 9.74917 2.9004 11.0078 2.81501 12.8532C2.72962 14.7012 2.71094 15.2932 2.71094 19.9998C2.71094 24.7065 2.72962 25.2985 2.81768 27.1465C2.89773 28.9918 3.19127 30.2505 3.6209 31.3545C4.05854 32.5118 4.74168 33.5572 5.62229 34.4238C6.48956 35.3038 7.53829 35.9865 8.69376 36.4238C9.79852 36.8505 11.0581 37.1438 12.9047 37.2292C14.754 37.3118 15.3464 37.3332 20.0563 37.3332C24.7662 37.3332 25.3587 37.3118 27.2079 37.2265C29.0546 37.1465 30.3141 36.8532 31.4189 36.4238C32.5709 35.9782 33.6171 35.297 34.4903 34.4238H34.493ZM5.37946 17.9598V22.0398C5.37412 24.2292 5.37412 24.7972 5.43283 26.0398C5.50221 27.6025 5.5876 28.7492 5.84912 29.6132C6.09996 30.4452 6.38015 31.2932 7.29812 32.3118C8.21609 33.3332 9.09937 33.7945 10.2255 34.1358C11.3543 34.4745 12.7713 34.5465 14.0014 34.6025C15.3944 34.6665 15.9495 34.6665 18.8742 34.6665H22.031C24.2779 34.6692 24.8436 34.6718 26.1032 34.6132C27.6643 34.5412 28.8117 34.4558 29.679 34.1972C30.5089 33.9465 31.3575 33.6638 32.3769 32.7492C33.3989 31.8318 33.8606 30.9465 34.2021 29.8212C34.541 28.6958 34.6157 27.2798 34.6718 26.0505C34.7332 24.6585 34.7332 24.1065 34.7332 21.1918V18.8185C34.7332 15.8958 34.7332 15.3438 34.6718 13.9492C34.6157 12.7198 34.541 11.3038 34.2021 10.1785C33.8632 9.0505 33.4016 8.16784 32.3769 7.2505C31.3548 6.33317 30.5089 6.05317 29.679 5.8025C28.8117 5.54384 27.6643 5.45584 26.1032 5.3865C24.7465 5.33079 23.3886 5.31301 22.031 5.33317H18.8742C15.9495 5.33317 15.3944 5.33317 14.0014 5.3945C12.7713 5.4505 11.3543 5.52517 10.2255 5.86384C9.09937 6.20517 8.21609 6.6665 7.29812 7.68784C6.38015 8.70917 6.09729 9.5545 5.84912 10.3865C5.5876 11.2505 5.50221 12.3972 5.43283 13.9598C5.37412 15.2025 5.37412 15.7705 5.37946 17.9598ZM20.0563 13.9998C18.4639 13.9998 16.9367 14.632 15.8107 15.7572C14.6847 16.8824 14.0521 18.4085 14.0521 19.9998C14.0521 21.5911 14.6847 23.1173 15.8107 24.2425C16.9367 25.3677 18.4639 25.9998 20.0563 25.9998C21.6487 25.9998 23.1759 25.3677 24.3019 24.2425C25.4279 23.1173 26.0605 21.5911 26.0605 19.9998C26.0605 18.4085 25.4279 16.8824 24.3019 15.7572C23.1759 14.632 21.6487 13.9998 20.0563 13.9998ZM11.3836 19.9998C11.3836 17.7013 12.2973 15.4969 13.9238 13.8716C15.5502 12.2463 17.7562 11.3332 20.0563 11.3332C22.3564 11.3332 24.5624 12.2463 26.1888 13.8716C27.8153 15.4969 28.729 17.7013 28.729 19.9998C28.729 22.2984 27.8153 24.5028 26.1888 26.1281C24.5624 27.7534 22.3564 28.6665 20.0563 28.6665C17.7562 28.6665 15.5502 27.7534 13.9238 26.1281C12.2973 24.5028 11.3836 22.2984 11.3836 19.9998ZM29.3161 12.7465C29.8469 12.7465 30.3559 12.5358 30.7313 12.1607C31.1066 11.7856 31.3175 11.2769 31.3175 10.7465C31.3175 10.2161 31.1066 9.70736 30.7313 9.33229C30.3559 8.95722 29.8469 8.7465 29.3161 8.7465C28.7853 8.7465 28.2762 8.95722 27.9009 9.33229C27.5255 9.70736 27.3147 10.2161 27.3147 10.7465C27.3147 11.2769 27.5255 11.7856 27.9009 12.1607C28.2762 12.5358 28.7853 12.7465 29.3161 12.7465Z" fill="white"/>
</svg>
