<svg width="41" height="40" viewBox="0 0 41 40" fill="none" xmlns="http://www.w3.org/2000/svg">
<g clip-path="url(#clip0_601_1618)">
<path fill-rule="evenodd" clip-rule="evenodd" d="M0 20.1117C0 30.055 7.22668 38.3233 16.6782 40V25.555H11.6748V20H16.6782V15.555C16.6782 10.555 19.9021 7.77833 24.462 7.77833C25.9063 7.77833 27.4641 8 28.9084 8.22167V13.3333H26.3516C23.9049 13.3333 23.3495 14.555 23.3495 16.1117V20H28.6866L27.7976 25.555H23.3495V40C32.8011 38.3233 40.0278 30.0567 40.0278 20.1117C40.0278 9.05 31.0215 0 20.0139 0C9.00625 0 0 9.05 0 20.1117Z" fill="white"/>
</g>
<defs>
<clipPath id="clip0_601_1618">
<rect width="40.0278" height="40" fill="white"/>
</clipPath>
</defs>
</svg>
